Safe.2012.CAM.XViD.AC3-TODE

 
http://www.imdb.com/title/tt1656190/


Format : AVI
 Format/Info : Audio Video Interleave
 File size : 681 MiB
 Duration : 1h 27mn
 Overall bit rate : 1 092 Kbps
 Writing application : Lavf54.3.100

 Video
 ID : 0
 Format : MPEG-4 Visual
 Format profile : Simple@L3
 Format settings, BVOP : No
 Format settings, QPel : No
 Format settings, GMC : No warppoints
 Format settings, Matrix : Default (H.263)
 Codec ID : XVID
 Codec ID/Hint : XviD
 Duration : 1h 27mn
 Bit rate : 953 Kbps
 Width : 640 pixels
 Height : 256 pixels
 Display aspect ratio : 2.500
 Frame rate : 25.000 fps
 Color space : YUV
 Chroma subsampling : 4:2:0
 Bit depth : 8 bits
 Scan type : Progressive
 Compression mode : Lossy
 Bits/(Pixel*Frame) : 0.233
 Stream size : 595 MiB (87%)
 Writing library : XviD 64

 Audio
 ID : 1
 Format : AC-3
 Format/Info : Audio Coding 3
 Mode extension : CM (complete main)
 Codec ID : 2000
 Duration : 1h 27mn
 Bit rate mode : Constant
 Bit rate : 128 Kbps
 Channel(s) : 2 channels
 Channel positions : Front: L R
 Sampling rate : 48.0 KHz
 Bit depth : 16 bits
 Compression mode : Lossy
 Stream size : 79.8 MiB (12%)
 Alignment : Aligned on interleaves
 Interleave, duration : 32 ms (0.80 video frame)


screeny:
 
http://img844.imageshack.us/img844/7253/w44qa9n0o90a.jpg 
http://img545.imageshack.us/img545/2901/lauuv0cdewy3.jpg 
http://img651.imageshack.us/img651/4454/4713981m.jpg 
http://img135.imageshack.us/img135/7391/kp9c21l0s6xz.jpg

